<svg xmlns="http://www.w3.org/2000/svg" xmlns:xlink="http://www.w3.org/1999/xlink" viewBox="0 0 216 216"><defs><style>.cls-1{fill:none;}.cls-2{clip-path:url(#clip-path);}.cls-3{fill:#fff;}.cls-4{font-size:52px;}.cls-4,.cls-6{font-family:Rockwell;}.cls-5{letter-spacing:0.02em;}.cls-6{font-size:75.96px;}.cls-7{letter-spacing:-0.05em;}.cls-8{letter-spacing:-0.08em;}</style><clipPath id="clip-path"><rect class="cls-1" x="9" y="8" width="197.81" height="200.53"/></clipPath></defs><g id="Layer_2" data-name="Layer 2"><g id="Saw_Blade_Alt" data-name="Saw Blade Alt"><g class="cls-2"><g class="cls-2"><path class="cls-3" d="M21.49,159.1c-.31-1.3-.56-2.32-.81-3.35,0-.08-.07-.18,0-.23,1-1.91,0-3.67-.68-5.27a10.74,10.74,0,0,1,.85-10.3,70.36,70.36,0,0,0,3.42-7.3,11.76,11.76,0,0,0,1.21-5,5.63,5.63,0,0,0-2.94-5.09,10,10,0,0,0-4.74-1.39c-1,0-2.05.1-2.09,1.52,0,.14-.24.29-.4.39l-5.82,3.38a6,6,0,0,1,.34-3.48c1.88-3,.86-6.44,1.49-9.61a3.58,3.58,0,0,1,1-2c2.85-2.81,5.66-5.65,8.48-8.5a12.45,12.45,0,0,0,3.05-4.48,5.62,5.62,0,0,0-.91-5.7,9.42,9.42,0,0,0-4.26-3.12c-.75-.27-1.86-.6-2.28.71-.08.24-.29.23-.48.27L9,91.69c.6-1.19.85-2.46,1.63-3.1,2.84-2.31,3.11-5.94,4.83-8.81a2.93,2.93,0,0,1,1.31-1.27c3.56-1.64,7.1-3.31,10.64-5a15.19,15.19,0,0,0,4.27-2.76,5.84,5.84,0,0,0,1.37-7.05,9.51,9.51,0,0,0-2.53-3.55c-.7-.58-1.61-1.24-2.53-.18-.16.19-.35.1-.54.07l-6.89-1.2c1.47-.94,1.94-2.66,3.78-2.62.4,0,.59-.38.83-.62,1.76-1.78,3.55-3.51,5.23-5.36a3.72,3.72,0,0,1,2.7-1.19c4.25-.37,8.51-.78,12.77-1.18a5.81,5.81,0,0,0,.58-.09c6-1.21,8.15-5.92,5.13-11.26-.43-.76-1.11-1.67-2.3-.91-.1.07-.36-.07-.53-.16l-6-3.48c1.68-.39,2.74-1.9,4.51-1.16.21.09.58-.16.86-.3,2.43-1.15,4.86-2.3,7.28-3.48a2.29,2.29,0,0,1,1.69-.17c4.43,1.19,8.88,2.32,13.32,3.47a5.73,5.73,0,0,0,.7.13c5.88.74,9.44-3,8.41-8.89-.14-.8-.44-2-1.86-1.62-.11,0-.32-.19-.43-.33-1.43-1.69-2.85-3.39-4.49-5.35,1.75.27,3.28-.84,4.7.48.19.17.69,0,1,0,2.64-.25,5.28-.49,7.92-.78a2.05,2.05,0,0,1,1.54.39q5,3.51,10,7a13.52,13.52,0,0,0,4.8,2.27,5.69,5.69,0,0,0,5.94-2.05,9.41,9.41,0,0,0,2.13-4.45c.15-.8.35-2-1.11-2.18-.13,0-.27-.26-.33-.43-.77-2.08-1.52-4.16-2.39-6.56,1.53.75,3.25.3,4.14,1.93.18.32.61.32,1,.41,2.49.63,5,1.3,7.48,1.9a2.93,2.93,0,0,1,1.87,1.28c2.27,3.3,4.58,6.56,6.89,9.82a13.28,13.28,0,0,0,3.36,3.49,5.84,5.84,0,0,0,6.9.11,11.3,11.3,0,0,0,3-2.87,2,2,0,0,0-.09-2.89.73.73,0,0,1-.12-.44c0-2.24,0-4.48,0-7,1.07.8,2.28,1.27,2.76,2.14,1.73,3.13,5.17,4,7.65,6.15A3.45,3.45,0,0,1,153,23.84c1,3.86,2.06,7.72,3.11,11.57a13.89,13.89,0,0,0,1.95,4.44,5.89,5.89,0,0,0,6.65,2.47,10.18,10.18,0,0,0,3.84-1.83c.77-.61,1.5-1.37.7-2.51a.7.7,0,0,1,0-.55q1-2.68,1.95-5.35c.12-.33.27-.65.46-1.12.68,1,1.66,1.9,1.82,2.89.58,3.58,3.52,5.63,5.16,8.5a3.24,3.24,0,0,1,.51,2c-.37,4.07-.7,8.13-1.06,12.19a12.31,12.31,0,0,0,.48,5,5.71,5.71,0,0,0,5.25,4.14,11.92,11.92,0,0,0,3.9-.27c1.39-.32,1.77-.81,1.8-2.3a.74.74,0,0,1,.21-.41c1.44-1.72,2.88-3.44,4.49-5.34.31,1.28.93,2.4.75,3.37-.68,3.64,1.44,6.65,2,10a2.67,2.67,0,0,1-.21,1.7q-2.56,5.49-5.1,11a12.59,12.59,0,0,0-1.38,5.48,5.66,5.66,0,0,0,3,5.07,11.5,11.5,0,0,0,4.39,1.38c1.31.17,1.9-.24,2.4-1.57a.83.83,0,0,1,.33-.31l5.91-3.42a6.18,6.18,0,0,1-.35,3.41c-1.86,3.16-.88,6.67-1.53,10a2.7,2.7,0,0,1-.72,1.54c-2.87,2.84-5.72,5.71-8.56,8.58a13,13,0,0,0-3.16,4.55,5.6,5.6,0,0,0,.91,5.8A9.55,9.55,0,0,0,197,127c.83.32,1.91.6,2.38-.73,0-.12.32-.19.5-.23l6.91-1.24c-1.12,1.36-.89,3.19-2.7,3.74-.35.11-.4.56-.55.88-1.07,2.33-2.16,4.66-3.19,7a2.94,2.94,0,0,1-1.58,1.63c-3.49,1.59-6.95,3.25-10.42,4.88a15.33,15.33,0,0,0-4.29,2.73,5.91,5.91,0,0,0-1.36,7.26,12.1,12.1,0,0,0,2.23,3.2,1.92,1.92,0,0,0,2.8.34.73.73,0,0,1,.44-.05c2.21.38,4.42.77,6.67,1.3-1.23.82-1.66,2.64-3.55,2.55-.23,0-.5.34-.72.56-1.67,1.69-3.4,3.33-5,5.1a4.58,4.58,0,0,1-3.41,1.53c-4.14.32-8.28.76-12.42,1.15a5.8,5.8,0,0,0-.81.16c-5.78,1.33-7.85,6.08-4.82,11.22.4.68,1.05,1.68,2.21.89.23-.15.37,0,.53.12l6,3.47c-1.21.53-2.26,1.39-3.28,1.36-3.64-.08-6.13,2.55-9.26,3.6a3,3,0,0,1-1.81.17q-6.65-1.78-13.32-3.47a10.24,10.24,0,0,0-3.66-.14c-3.13.35-5.2,2.8-5.43,6.49-.08,1.35-.4,2.8.88,3.87.15.12.36.41.41.38,1.14-.62,1.32.52,1.75,1,1.24,1.37,2.39,2.82,3.71,4.4-1.31.08-2.53.52-3.46.16-3.47-1.32-6.8.28-10.19.23a2.53,2.53,0,0,1-1.53-.45q-5-3.51-10-7a13.31,13.31,0,0,0-4.8-2.25,5.67,5.67,0,0,0-5.77,1.93,9.65,9.65,0,0,0-2.25,4.53c-.17.88-.32,2.06,1.17,2.23.1,0,.2.24.25.38.77,2.11,1.54,4.22,2.42,6.65-1.57-.79-3.32-.36-4.2-2-.11-.21-.55-.27-.85-.35-2.53-.65-5.06-1.32-7.59-1.94A2.82,2.82,0,0,1,94.31,203c-2.27-3.29-4.59-6.55-6.89-9.82A13.28,13.28,0,0,0,84,189.63a5.8,5.8,0,0,0-6.79-.1A9.58,9.58,0,0,0,74,192.68c-.5.82-.93,1.82.21,2.61.12.08.15.35.15.54,0,2.21,0,4.42,0,6.86-1-.76-2.25-1.22-2.73-2.09-1.76-3.16-5.22-4.08-7.74-6.22a3.18,3.18,0,0,1-1.16-1.69c-1-3.86-2.08-7.71-3.12-11.57a14,14,0,0,0-1.87-4.34,5.91,5.91,0,0,0-6.93-2.55,12.19,12.19,0,0,0-3.43,1.59c-1.14.75-1.33,1.39-.88,2.75a.89.89,0,0,1-.07.57c-.75,2.08-1.51,4.15-2.35,6.43-.7-1.07-1.66-1.91-1.83-2.9-.65-3.67-3.67-5.81-5.36-8.79a2.77,2.77,0,0,1-.32-1.69c.35-4.06.69-8.13,1-12.19a12.32,12.32,0,0,0-.58-5.39,5.64,5.64,0,0,0-4.76-3.79,9.72,9.72,0,0,0-4.58.32c-.91.32-2.05.71-1.51,2.17,0,.12-.14.36-.27.5-1.41,1.7-2.84,3.39-4.43,5.29"/></g></g></g></g><g id="Layer_1" data-name="Layer 1"><text class="cls-4" transform="translate(62.89 72.15)"><tspan class="cls-5">T</tspan><tspan x="30.6" y="0">he</tspan></text><text class="cls-6" transform="translate(32.08 133.15)">WW</text><text class="cls-4" transform="translate(69.13 179.86)">C<tspan class="cls-7" x="39.51" y="0">o</tspan><tspan class="cls-8" x="66.73" y="0">.</tspan></text></g></svg>