<svg xmlns="http://www.w3.org/2000/svg" xmlns:xlink="http://www.w3.org/1999/xlink" viewBox="0 0 216 216"><defs><style>.cls-1{fill:none;}.cls-2{clip-path:url(#clip-path);}.cls-3{font-size:52px;}.cls-3,.cls-5{fill:#fff;font-family:Rockwell;}.cls-4{letter-spacing:0.02em;}.cls-5{font-size:75.96px;}.cls-6{letter-spacing:-0.05em;}.cls-7{letter-spacing:-0.08em;}</style><clipPath id="clip-path"><rect class="cls-1" x="9.1" y="7.73" width="197.81" height="200.53"/></clipPath></defs><g id="Layer_2" data-name="Layer 2"><g id="Saw_Blade" data-name="Saw Blade"><g class="cls-2"><g class="cls-2"><path d="M21.59,158.83c-.32-1.29-.57-2.32-.81-3.35,0-.08-.07-.17,0-.23,1-1.91,0-3.67-.68-5.27a10.77,10.77,0,0,1,.84-10.3,68.54,68.54,0,0,0,3.43-7.3,11.9,11.9,0,0,0,1.21-5,5.63,5.63,0,0,0-2.95-5.08,9.71,9.71,0,0,0-4.74-1.39c-1,0-2.05.09-2.09,1.52,0,.13-.23.29-.39.38l-5.83,3.38a6.07,6.07,0,0,1,.35-3.48c1.87-3,.86-6.43,1.48-9.61a3.66,3.66,0,0,1,1-2c2.85-2.81,5.66-5.65,8.47-8.5a12.52,12.52,0,0,0,3.06-4.47,5.63,5.63,0,0,0-.91-5.7,9.44,9.44,0,0,0-4.26-3.13c-.75-.26-1.87-.6-2.28.72-.08.23-.3.23-.48.26L9.1,91.43c.6-1.2.85-2.47,1.62-3.1,2.84-2.31,3.12-5.94,4.83-8.81a2.9,2.9,0,0,1,1.32-1.27c3.55-1.64,7.09-3.32,10.64-5a15.14,15.14,0,0,0,4.26-2.76,5.83,5.83,0,0,0,1.38-7.05,9.5,9.5,0,0,0-2.54-3.55c-.69-.58-1.61-1.23-2.52-.18-.16.19-.36.11-.54.07l-6.89-1.2c1.46-.94,1.94-2.66,3.78-2.61.4,0,.58-.38.83-.63C27,53.59,28.82,51.85,30.49,50a3.71,3.71,0,0,1,2.7-1.18c4.26-.37,8.52-.79,12.77-1.19a5.59,5.59,0,0,0,.59-.08c6-1.21,8.14-5.93,5.13-11.27-.43-.75-1.11-1.66-2.31-.9-.1.06-.36-.08-.52-.17l-6-3.48c1.67-.38,2.73-1.9,4.51-1.15.21.08.58-.17.86-.3,2.43-1.15,4.86-2.3,7.28-3.48a2.2,2.2,0,0,1,1.69-.17C61.6,27.81,66.05,29,70.49,30.1c.23,0,.46.1.7.13,5.88.73,9.43-3,8.41-8.9-.14-.8-.45-2-1.86-1.62-.11,0-.32-.19-.44-.33C75.88,17.69,74.46,16,72.82,14c1.75.27,3.27-.84,4.7.48.19.18.69.05,1,0,2.64-.24,5.28-.48,7.92-.78a2.11,2.11,0,0,1,1.54.39q5,3.53,10,7a13.55,13.55,0,0,0,4.79,2.27,5.71,5.71,0,0,0,6-2,9.46,9.46,0,0,0,2.13-4.45c.14-.8.35-2-1.12-2.18-.12,0-.26-.26-.33-.43-.76-2.07-1.51-4.15-2.38-6.56,1.53.75,3.25.3,4.14,1.93.17.33.61.32,1,.41,2.49.64,5,1.3,7.47,1.9a3,3,0,0,1,1.88,1.28c2.26,3.3,4.58,6.56,6.89,9.83a13.4,13.4,0,0,0,3.36,3.48,5.84,5.84,0,0,0,6.9.11,11.58,11.58,0,0,0,3-2.86,2,2,0,0,0-.1-2.89.84.84,0,0,1-.11-.45c0-2.24,0-4.48,0-7,1.07.8,2.28,1.27,2.77,2.14,1.73,3.13,5.17,4,7.65,6.16a3.31,3.31,0,0,1,1.23,1.76c1,3.87,2.07,7.72,3.12,11.58a13.62,13.62,0,0,0,1.95,4.43,5.86,5.86,0,0,0,6.65,2.47,10.09,10.09,0,0,0,3.84-1.82c.77-.62,1.49-1.38.7-2.51a.72.72,0,0,1,0-.56c.64-1.78,1.29-3.57,2-5.35.12-.33.26-.64.46-1.11.68,1,1.66,1.89,1.82,2.89.57,3.58,3.52,5.62,5.16,8.5a3.16,3.16,0,0,1,.5,2c-.36,4.06-.7,8.12-1.06,12.19a12.43,12.43,0,0,0,.48,5,5.73,5.73,0,0,0,5.26,4.14,11.84,11.84,0,0,0,3.89-.26c1.4-.33,1.78-.82,1.8-2.3a.79.79,0,0,1,.22-.41c1.44-1.73,2.88-3.44,4.48-5.35.31,1.28.94,2.4.76,3.37-.69,3.64,1.44,6.65,2,10a2.68,2.68,0,0,1-.22,1.7q-2.57,5.49-5.09,11a12.71,12.71,0,0,0-1.39,5.48,5.65,5.65,0,0,0,3,5.06,11.29,11.29,0,0,0,4.38,1.38c1.32.17,1.91-.24,2.41-1.56a.79.79,0,0,1,.33-.32l5.91-3.42a6.3,6.3,0,0,1-.35,3.42c-1.86,3.15-.88,6.66-1.53,10a2.68,2.68,0,0,1-.73,1.54q-4.29,4.28-8.55,8.58a13.09,13.09,0,0,0-3.16,4.55,5.63,5.63,0,0,0,.9,5.81,9.71,9.71,0,0,0,4.16,3.07c.83.31,1.91.59,2.38-.73,0-.12.32-.2.5-.23l6.9-1.25c-1.12,1.36-.88,3.2-2.69,3.74-.36.11-.41.56-.55.88-1.07,2.34-2.17,4.67-3.19,7a3,3,0,0,1-1.58,1.64c-3.49,1.58-6.95,3.24-10.43,4.87a15.4,15.4,0,0,0-4.28,2.74,5.89,5.89,0,0,0-1.36,7.25,12.08,12.08,0,0,0,2.23,3.21,1.94,1.94,0,0,0,2.8.34.66.66,0,0,1,.44,0c2.21.38,4.42.76,6.67,1.29-1.23.82-1.66,2.65-3.55,2.55-.23,0-.51.34-.72.56-1.68,1.69-3.4,3.33-5,5.11a4.62,4.62,0,0,1-3.4,1.53c-4.15.31-8.28.75-12.42,1.14a7.73,7.73,0,0,0-.81.16c-5.78,1.33-7.85,6.08-4.82,11.23.4.68,1.05,1.67,2.21.89.22-.16.37,0,.52.11,2,1.12,3.9,2.25,6,3.48-1.2.52-2.25,1.38-3.28,1.36-3.63-.09-6.12,2.54-9.25,3.59a2.88,2.88,0,0,1-1.81.17c-4.43-1.19-8.87-2.33-13.32-3.46a10,10,0,0,0-3.66-.15c-3.13.35-5.21,2.8-5.43,6.49-.08,1.35-.4,2.81.88,3.87.14.13.36.41.41.38,1.13-.62,1.31.53,1.75,1,1.24,1.36,2.39,2.81,3.71,4.39-1.31.09-2.54.52-3.46.17-3.47-1.32-6.8.27-10.2.22a2.52,2.52,0,0,1-1.52-.45l-10-7a13.41,13.41,0,0,0-4.81-2.24,5.64,5.64,0,0,0-5.76,1.93A9.48,9.48,0,0,0,105,199c-.18.89-.32,2.06,1.17,2.24.1,0,.2.23.25.38.77,2.1,1.53,4.21,2.42,6.65-1.58-.8-3.32-.37-4.21-2-.11-.21-.55-.26-.85-.34-2.52-.66-5-1.32-7.58-1.94a2.82,2.82,0,0,1-1.78-1.22c-2.27-3.3-4.59-6.56-6.89-9.82a13.63,13.63,0,0,0-3.45-3.57,5.83,5.83,0,0,0-6.8-.1,9.9,9.9,0,0,0-3.18,3.16c-.5.81-.92,1.81.22,2.6.12.08.14.36.14.54,0,2.21,0,4.42,0,6.87-1-.77-2.25-1.23-2.73-2.09-1.76-3.16-5.23-4.09-7.74-6.23a3.18,3.18,0,0,1-1.17-1.68c-1-3.87-2.07-7.72-3.11-11.58a14.41,14.41,0,0,0-1.87-4.34A5.9,5.9,0,0,0,50.91,174a11.83,11.83,0,0,0-3.44,1.59c-1.14.74-1.32,1.38-.87,2.74a.88.88,0,0,1-.07.57C45.78,181,45,183,44.18,185.31c-.7-1.07-1.66-1.92-1.84-2.91-.64-3.67-3.66-5.81-5.35-8.79a2.68,2.68,0,0,1-.32-1.69q.53-6.09,1-12.19a12,12,0,0,0-.58-5.38,5.62,5.62,0,0,0-4.75-3.8,9.6,9.6,0,0,0-4.58.33c-.92.31-2.05.71-1.51,2.16,0,.12-.15.36-.27.51l-4.43,5.28"/></g></g></g></g><g id="Layer_1" data-name="Layer 1"><text class="cls-3" transform="translate(62.89 72.15)"><tspan class="cls-4">T</tspan><tspan x="30.6" y="0">he</tspan></text><text class="cls-5" transform="translate(32.08 133.15)">WW</text><text class="cls-3" transform="translate(69.13 179.86)">C<tspan class="cls-6" x="39.51" y="0">o</tspan><tspan class="cls-7" x="66.73" y="0">.</tspan></text></g></svg>